<svg xmlns="http://www.w3.org/2000/svg" width="86.4" height="86.4" data-name="Layer 1" viewBox="0 0 63.2 63.9"><path fill="#f0bdd7" d="M45.9 38.8l-2.6-7.3a13.2 13.2 0 0 0-23.2-1.4 8.1 8.1 0 0 0-1 2.3c-.4 1.6-1.4 6.9-3.8 9.7-.3.4-4.2 4.5-5.1 7.2a10.8 10.8 0 0 0-.7 5.2 11 11 0 0 0 12.9 9.3c6.4-1.1 10.8-1.1 19.8.4 5.9 1 10.9-4.9 10.9-10.9a18.9 18.9 0 0 0-3.9-8.5 17.4 17.4 0 0 1-3.3-6zM12 26.5C-1.5 18.4.8 33.6.8 33.6A7.6 7.6 0 1 0 12 26.5zm39.5 0c13.4-8.1 11.2 7.1 11.2 7.1a7.6 7.6 0 1 1-11.2-7.1zm-25-19.9c-11.7-15.4-14.4 3.5-14.4 3.5a10.5 10.5 0 0 0 0 4.9c1.2 5.2 6 8.4 10.5 7.3s7.3-6.2 6-11.3a10.5 10.5 0 0 0-2.1-4.4zm9.1.4C46.3-9.1 50.2 9.6 50.2 9.6a10.5 10.5 0 0 1 .3 4.9c-.9 5.2-5.4 8.8-10 8s-7.6-5.7-6.7-10.9A10.5 10.5 0 0 1 35.6 7z"/></svg>