<svg id="Layer_1" data-name="Layer 1" xmlns="http://www.w3.org/2000/svg" width="0.9in" height="0.9in" viewBox="0 0 64 64"><title>Artboard 4</title><polygon points="34.6 21.4 34.6 8.1 15.7 8.1 15.7 21.4 2.5 21.4 2.5 40.4 15.7 40.4 15.7 53.7 34.6 53.7 34.6 40.4 47.8 40.4 47.8 21.4 34.6 21.4" fill="#0097a7"/><path d="M-.1,14.3H9.8V42.6H26l-.9,8.4H-.1Z" fill="#00bcd4"/><path d="M61.8,25.9A13.4,13.4,0,0,1,60.4,32a10.4,10.4,0,0,1-4.1,4.3l7.5,14.6H53.4l-6-12.6H42.1V50.9H32.7V14.3H47.2a21.9,21.9,0,0,1,7.1,1,11.9,11.9,0,0,1,4.5,2.6,9.1,9.1,0,0,1,2.4,3.7A13.7,13.7,0,0,1,61.8,25.9ZM42.1,30.7h4.8q3,0,4.2-1.2a4.4,4.4,0,0,0,1.2-3.3A4,4,0,0,0,51,23q-1.3-1.1-4.4-1.1H42.1Z" fill="#00bcd4"/><path d="M24.2,38.9a10,10,0,0,1,3.9.9c2.2,1,4.5-2.1,3.1-4s-2.4-1.4-2.7-2.5-2.8-4.9-5.6-1.3-2.5,2.5-3.5,3.1-1.5,4.1,1.1,4.6S23,39.1,24.2,38.9Z" fill="#ffeb3b"/><path d="M23.5,28.9a6.8,6.8,0,0,0,.3-5.4c-1-2.5-3.1-1.4-3.8,1.2S21.4,30.9,23.5,28.9Z" fill="#ffeb3b"/><path d="M20.4,32.3c.4-.7-.5-3.1-2.5-3.9S15,30.4,15.4,32,18.2,36.6,20.4,32.3Z" fill="#ffeb3b"/><path d="M26.8,29.1a6.8,6.8,0,0,1-.7-5.4c.9-2.6,3-1.6,3.9.9S29,31,26.8,29.1Z" fill="#ffeb3b"/><path d="M30.1,32.2c-.4-.7.3-3.1,2.3-4.1s3,1.9,2.7,3.5S32.6,36.4,30.1,32.2Z" fill="#ffeb3b"/><polygon points="15.7 42.6 9.8 42.6 9.8 40.4 2.5 40.4 2.5 21.4 9.8 21.4 9.8 14.3 -0.1 14.3 -0.1 50.9 15.7 50.9 15.7 42.6" fill="#ffeb3b"/><rect x="34.6" y="40.4" width="7.5" height="10.47" fill="#ffeb3b"/><path d="M56.3,36.3A10.4,10.4,0,0,0,60.4,32a13.4,13.4,0,0,0,1.3-6.1,13.7,13.7,0,0,0-.7-4.3,9.1,9.1,0,0,0-2.4-3.7,11.9,11.9,0,0,0-4.5-2.6,21.9,21.9,0,0,0-7.1-1H34.6v7.1H47.8V22A5.5,5.5,0,0,1,51,23a4,4,0,0,1,1.3,3.2,4.4,4.4,0,0,1-1.2,3.3,5.2,5.2,0,0,1-3.3,1.1v8.5l5.6,11.7H63.8Z" fill="#ffeb3b"/></svg>