<svg id="Layer_1" data-name="Layer 1" xmlns="http://www.w3.org/2000/svg" width="3.6in" height="3.3in" viewBox="0 0 256 235"><title>Artboard 1</title><polygon points="138.3 69.3 138.3 16.4 63.1 16.4 63.1 69.3 10.6 69.3 10.6 145 63.1 145 63.1 197.9 138.3 197.9 138.3 145 190.8 145 190.8 69.3 138.3 69.3" fill="#0097a7"/><path d="M.3,41.2H39.5V153.5h64.4l-3.5,33.2H.3Z" fill="#00bcd4"/><path d="M246.2,87.2q0,13.9-5.3,24.4a41.3,41.3,0,0,1-16.3,17l29.8,58.1H213l-23.8-50.1H168v50.1H130.7V41.2h57.5q16.9,0,28.1,3.9t17.8,10.3a36.1,36.1,0,0,1,9.4,14.8A54.4,54.4,0,0,1,246.2,87.2Zm-78.2,19h19.2q11.8,0,16.6-4.6t4.8-13.1q0-8.1-5.1-12.6t-17.5-4.5H168Z" fill="#00bcd4"/><path d="M96.7,138.7s6.5-.2,15.3,3.6,17.7-8.4,12.3-15.7-9.6-5.7-10.7-10.1-11.3-19.4-22.3-5-9.9,10.1-13.9,12.3-5.9,16.2,4.3,18.4S91.9,139.8,96.7,138.7Z" fill="#ffeb3b"/><path d="M94,99.1c.8-.8,5.3-11.4,1.3-21.5S83.1,72,80.3,82.3,85.8,107.1,94,99.1Z" fill="#ffeb3b"/><path d="M81.6,112.5c1.5-2.9-2-12.3-10-15.6s-11.4,8.3-9.8,14.6S73,129.8,81.6,112.5Z" fill="#ffeb3b"/><path d="M107.2,99.9c-.9-.7-6.1-11-2.7-21.3s11.8-6.5,15.3,3.6S115.9,107.4,107.2,99.9Z" fill="#ffeb3b"/><path d="M120.5,112.4c-1.7-2.8,1.2-12.4,9-16.2s12,7.6,10.8,14S130.2,129.1,120.5,112.4Z" fill="#ffeb3b"/><polygon points="63.1 153.5 39.5 153.5 39.5 145 10.6 145 10.6 69.3 39.5 69.3 39.5 41.2 0.3 41.2 0.3 186.7 63.1 186.7 63.1 153.5" fill="#ffeb3b"/><rect x="138.3" y="145" width="29.7" height="41.63" fill="#ffeb3b"/><path d="M224.6,128.6a41.2,41.2,0,0,0,16.3-17q5.3-10.5,5.3-24.4a54.4,54.4,0,0,0-2.8-17.1,36.1,36.1,0,0,0-9.4-14.8q-6.6-6.4-17.8-10.3t-28.1-3.9H138.3V69.3h52.5v2.3c5.7.5,10,1.9,12.6,4.3s5.1,7.2,5.1,12.6-1.6,10.1-4.8,13.1-7,4-12.9,4.4v33.9L213,186.7h41.4Z" fill="#ffeb3b"/></svg>