<svg id="Layer_1" data-name="Layer 1" xmlns="http://www.w3.org/2000/svg" width="0.2in" height="0.2in" viewBox="0 0 16 16"><title>Artboard 5</title><rect x="4.4" width="7.3" height="16" transform="translate(16 16) rotate(180)" fill="#0097a7"/><rect x="4.4" width="7.3" height="16" transform="translate(0 16) rotate(-90)" fill="#0097a7"/><path d="M7.5,11.1a4,4,0,0,1,1.5.4c.9.4,1.8-.8,1.2-1.6s-1-.6-1.1-1S8.1,6.9,7,8.3s-1,1-1.4,1.2-.6,1.6.4,1.8S7.1,11.2,7.5,11.1Z" fill="#ffeb3b"/><path d="M8.6,7.2a2.7,2.7,0,0,1-.3-2.1c.3-1,1.2-.6,1.5.4S9.5,7.9,8.6,7.2Z" fill="#ffeb3b"/><path d="M9.9,8.4a1.6,1.6,0,0,1,.9-1.6c.8-.4,1.2.8,1.1,1.4S10.9,10.1,9.9,8.4Z" fill="#ffeb3b"/><path d="M7.3,7.1A2.7,2.7,0,0,0,7.4,5c-.4-1-1.2-.6-1.5.5S6.5,7.9,7.3,7.1Z" fill="#ffeb3b"/><path d="M6,8.4c.1-.3-.2-1.2-1-1.6s-1.1.8-1,1.5S5.2,10.2,6,8.4Z" fill="#ffeb3b"/></svg>