<svg id="Layer_1" data-name="Layer 1" xmlns="http://www.w3.org/2000/svg" width="0.4in" height="0.4in" viewBox="0 0 32 32"><title>Artboard 2</title><polygon points="17.5 10.7 17.5 4 8 4 8 10.7 1.4 10.7 1.4 20.2 8 20.2 8 26.9 17.5 26.9 17.5 20.2 24.1 20.2 24.1 10.7 17.5 10.7" fill="#0097a7"/><path d="M.1,7.2H5V21.3h8.1l-.4,4.2H.1Z" fill="#00bcd4"/><path d="M31.1,13a6.7,6.7,0,0,1-.7,3.1,5.2,5.2,0,0,1-2.1,2.1l3.7,7.3H26.9l-3-6.3H21.2v6.3H16.5V7.2h7.2a11,11,0,0,1,3.5.5,6,6,0,0,1,2.2,1.3,4.5,4.5,0,0,1,1.2,1.9A6.8,6.8,0,0,1,31.1,13Zm-9.8,2.4h2.4a3,3,0,0,0,2.1-.6,2.2,2.2,0,0,0,.6-1.7,2,2,0,0,0-.6-1.6,3.4,3.4,0,0,0-2.2-.6H21.2Z" fill="#00bcd4"/><path d="M12.2,19.4a5,5,0,0,1,1.9.5c1.1.5,2.2-1.1,1.5-2s-1.2-.7-1.3-1.3S13,14.2,11.6,16s-1.3,1.3-1.8,1.6-.7,2,.5,2.3S11.6,19.6,12.2,19.4Z" fill="#ffeb3b"/><path d="M11.9,14.5a3.4,3.4,0,0,0,.2-2.7c-.5-1.3-1.5-.7-1.9.6S10.9,15.5,11.9,14.5Z" fill="#ffeb3b"/><path d="M10.3,16.1c.2-.4-.3-1.5-1.3-2s-1.4,1-1.2,1.8S9.3,18.3,10.3,16.1Z" fill="#ffeb3b"/><path d="M13.6,14.6a3.4,3.4,0,0,1-.3-2.7c.4-1.3,1.5-.8,1.9.5S14.7,15.5,13.6,14.6Z" fill="#ffeb3b"/><path d="M15.2,16.1a2,2,0,0,1,1.1-2c1-.5,1.5,1,1.4,1.8S16.5,18.2,15.2,16.1Z" fill="#ffeb3b"/><polygon points="8 21.3 5 21.3 5 20.2 1.4 20.2 1.4 10.7 5 10.7 5 7.2 0.1 7.2 0.1 25.5 8 25.5 8 21.3" fill="#ffeb3b"/><rect x="17.5" y="20.2" width="3.7" height="5.24" fill="#ffeb3b"/><path d="M28.3,18.2A5.2,5.2,0,0,0,30.4,16a6.7,6.7,0,0,0,.7-3.1,6.8,6.8,0,0,0-.3-2.2,4.5,4.5,0,0,0-1.2-1.9,6,6,0,0,0-2.2-1.3,11,11,0,0,0-3.5-.5H17.5v3.5h6.6V11a2.7,2.7,0,0,1,1.6.5,2,2,0,0,1,.6,1.6,2.2,2.2,0,0,1-.6,1.7,2.6,2.6,0,0,1-1.6.6v4.3l2.8,5.9h5.2Z" fill="#ffeb3b"/></svg>